<svg preserveAspectRatio="none" width="100%" height="100%" overflow="visible" style="display: block;" viewBox="0 0 15 8" fill="none" xmlns="http://www.w3.org/2000/svg">
<g id="Group">
<path id="Vector" d="M7.21879 7.87504C7.1326 7.87513 7.04724 7.85819 6.96762 7.82519C6.888 7.79219 6.81568 7.74379 6.75482 7.68276L0.192322 1.12026C-0.0641074 0.86383 -0.0641074 0.448588 0.192322 0.192322C0.448752 -0.0639434 0.863994 -0.0641074 1.12026 0.192322L7.21879 6.29085L13.3173 0.192322C13.5738 -0.0641074 13.989 -0.0641074 14.2453 0.192322C14.5015 0.448752 14.5017 0.863994 14.2453 1.12026L7.68276 7.68276C7.6219 7.74379 7.54958 7.79219 7.46996 7.82519C7.39034 7.85819 7.30498 7.87513 7.21879 7.87504Z" fill="var(--fill-0, #103358)"/>
</g>
</svg>
