<svg preserveAspectRatio="none" width="100%" height="100%" overflow="visible" style="display: block;" viewBox="0 0 12 6" fill="none" xmlns="http://www.w3.org/2000/svg">
<g id="Group">
<path id="Vector" d="M5.69322 5.88514C5.62525 5.88521 5.55793 5.87255 5.49513 5.84789C5.43234 5.82323 5.3753 5.78705 5.3273 5.74145L0.151678 0.837187C-0.0505594 0.645553 -0.0505594 0.335237 0.151678 0.143725C0.353916 -0.0477859 0.681403 -0.0479085 0.883511 0.143725L5.69322 4.70125L10.5029 0.143725C10.7052 -0.0479085 11.0327 -0.0479085 11.2348 0.143725C11.4369 0.335359 11.437 0.645676 11.2348 0.837187L6.05914 5.74145C6.01114 5.78705 5.9541 5.82323 5.89131 5.84789C5.82851 5.87255 5.76119 5.88521 5.69322 5.88514Z" fill="var(--fill-0, #103358)"/>
</g>
</svg>
